<svg width="48" height="56" viewBox="0 0 48 56" fill="none" xmlns="http://www.w3.org/2000/svg">
<path d="M9.166 40.4157C7.106 37.863 6 35 6 30.359C6 22.1923 10.914 14.8727 18.06 11.2537L19.846 14.469C13.176 18.6783 11.872 24.1407 11.352 27.5847C12.426 26.936 13.832 26.7097 15.21 26.859C18.818 27.2487 21.662 30.7043 21.662 35C21.662 37.1659 20.9245 39.2432 19.6117 40.7747C18.299 42.3062 16.5185 43.1667 14.662 43.1667C13.6353 43.1562 12.6207 42.9076 11.6771 42.4353C10.7336 41.963 9.87997 41.2765 9.166 40.4157ZM29.166 40.4157C27.106 37.863 26 35 26 30.359C26 22.1923 30.914 14.8727 38.06 11.2537L39.846 14.469C33.176 18.6783 31.872 24.1407 31.352 27.5847C32.426 26.936 33.832 26.7097 35.21 26.859C38.818 27.2487 41.662 30.7043 41.662 35C41.662 37.1659 40.9245 39.2432 39.6117 40.7747C38.299 42.3062 36.5185 43.1667 34.662 43.1667C33.6353 43.1562 32.6207 42.9076 31.6771 42.4353C30.7336 41.963 29.88 41.2765 29.166 40.4157Z" fill="#FFFBF2"/>
</svg>
