<svg width="140" height="25" viewBox="0 0 140 25" fill="none" xmlns="http://www.w3.org/2000/svg">
<g clip-path="url(#clip0_10_189)">
<path d="M-0.0234375 0.491276H7.16116L12.4236 13.2251L19.1863 0.187256L26.2185 13.2719L31.5278 0.491276H38.6538L26.9334 25.0469L19.2566 10.372L11.7673 25.0002L-0.0234375 0.491276Z" fill="black"/>
<path d="M52.355 24.9763C49.9895 25.0304 47.6482 24.4916 45.5454 23.4094C43.6427 22.4355 42.0633 20.9328 40.9979 19.0829C39.9498 17.0418 39.4033 14.7813 39.4033 12.488C39.4033 10.1946 39.9498 7.93414 40.9979 5.89303C42.0412 4.04526 43.6064 2.54467 45.4985 1.57825C47.6279 0.51489 49.9862 -0.0110842 52.3667 0.0464434C54.6949 -0.0196859 57.0052 0.46938 59.1059 1.47301C60.9154 2.38705 62.3974 3.83697 63.3487 5.62409C64.3689 7.66153 64.8682 9.91908 64.802 12.1956C64.802 12.5114 64.802 12.8388 64.802 13.1779C64.802 13.517 64.802 13.8093 64.72 14.0198H43.342V9.85701H58.8715L57.0431 12.2541C57.2019 11.9829 57.3241 11.692 57.4065 11.3888C57.5182 11.101 57.5815 10.7968 57.594 10.4884C57.623 9.44467 57.3978 8.40945 56.9376 7.4716C56.5181 6.65659 55.8814 5.97281 55.0975 5.49546C54.245 4.99931 53.2714 4.74838 52.2847 4.77048C51.1235 4.73109 49.9757 5.02753 48.9795 5.62409C48.0591 6.2479 47.3517 7.13728 46.9519 8.1732C46.441 9.50561 46.1827 10.9211 46.19 12.3477C46.1519 13.7334 46.3909 15.1127 46.8933 16.4052C47.3102 17.4521 48.0487 18.3404 49.0029 18.9426C50.0219 19.5599 51.1986 19.8687 52.3901 19.8313C53.7227 19.8696 55.0439 19.5762 56.2344 18.9777C57.33 18.3732 58.2412 17.4843 58.8715 16.4052L64.7317 18.2176C63.6068 20.3665 61.8749 22.139 59.7505 23.3159C57.4649 24.4821 54.921 25.0532 52.355 24.9763Z" fill="black"/>
<path d="M65.7279 0.560303H72.9711L78.8313 13.8905L84.6915 0.560303H91.9347L78.8547 24.999L65.7279 0.560303Z" fill="black"/>
<path d="M105.706 24.9768C103.337 25.0293 100.992 24.4908 98.8849 23.4099C96.9995 22.4287 95.4371 20.9267 94.3843 19.0834C93.3362 17.0423 92.7896 14.7818 92.7896 12.4885C92.7896 10.1951 93.3362 7.93465 94.3843 5.89354C95.4275 4.04577 96.9928 2.54518 98.8849 1.57876C101.013 0.59112 103.33 0.0706488 105.677 0.0524939C108.025 0.0343389 110.349 0.518923 112.492 1.47352C114.305 2.38376 115.787 3.83468 116.735 5.6246C117.755 7.66204 118.255 9.91959 118.188 12.1962C118.188 12.5119 118.188 12.8393 118.188 13.1784C118.183 13.4602 118.159 13.7414 118.118 14.0203H96.6463V9.85752H112.211L110.383 12.2546C110.549 11.9829 110.683 11.6924 110.781 11.3893C110.884 11.0996 110.944 10.7961 110.957 10.489C110.99 9.44615 110.768 8.41097 110.312 7.47212C109.889 6.65629 109.248 5.9726 108.46 5.49597C107.608 4.99982 106.634 4.74889 105.648 4.771C104.487 4.73426 103.34 5.03051 102.342 5.6246C101.422 6.24841 100.715 7.13779 100.315 8.17371C99.8204 9.50929 99.578 10.9246 99.5998 12.3482C99.5617 13.7339 99.8007 15.1132 100.303 16.4057C100.72 17.4526 101.459 18.3409 102.413 18.9431C103.428 19.5601 104.6 19.8689 105.788 19.8318C107.117 19.8648 108.433 19.5717 109.621 18.9782C110.713 18.373 111.62 17.484 112.246 16.4057L118.106 18.2181C116.978 20.3646 115.247 22.1362 113.125 23.3164C110.831 24.4817 108.28 25.0526 105.706 24.9768Z" fill="black"/>
<path d="M129.897 0.573092V24.9767H123.287V0.573092H129.897ZM136.929 7.74101C136.523 7.34279 136.056 7.01126 135.546 6.75878C135 6.50746 134.402 6.38733 133.8 6.40799C133.031 6.39059 132.279 6.63379 131.667 7.09788C131.049 7.60604 130.59 8.27941 130.342 9.03895C130.026 10.0047 129.876 11.0167 129.897 12.0324L128.034 10.1264C127.997 8.34323 128.37 6.57534 129.123 4.95803C129.774 3.54295 130.754 2.30395 131.983 1.34484C133.012 0.500879 134.296 0.0271977 135.628 0.000129216C136.475 -0.00518826 137.315 0.153659 138.101 0.467853C138.851 0.771274 139.506 1.26757 140 1.90611L136.929 7.74101Z" fill="black"/>
</g>
<defs>
<clipPath id="clip0_10_189">
<rect width="140" height="25" fill="white"/>
</clipPath>
</defs>
</svg>
