<svg width="180" height="33" viewBox="0 0 180 33" fill="none" xmlns="http://www.w3.org/2000/svg">
<g clip-path="url(#clip0_17_144)">
<path d="M-0.0301514 0.632228H9.20718L15.9732 17.0202L24.668 0.240967L33.7095 17.0804L40.5358 0.632228H49.6978L34.6287 32.2343L24.7585 13.3483L15.1293 32.1741L-0.0301514 0.632228Z" fill="white"/>
<path d="M67.3136 32.1435C64.2723 32.2131 61.262 31.5197 58.5584 30.127C56.1121 28.8736 54.0814 26.9397 52.7116 24.559C51.3641 21.9322 50.6614 19.023 50.6614 16.0716C50.6614 13.1201 51.3641 10.211 52.7116 7.58416C54.053 5.20617 56.0654 3.27496 58.4982 2.03123C61.2359 0.66273 64.268 -0.0141757 67.3287 0.0598599C70.322 -0.0252457 73.2925 0.604161 75.9934 1.89579C78.3199 3.07212 80.2252 4.9381 81.4484 7.23804C82.7601 9.86014 83.402 12.7655 83.3169 15.6954C83.3169 16.1017 83.3169 16.523 83.3169 16.9594C83.3169 17.3959 83.3169 17.7721 83.2115 18.0429H55.7255V12.6856H75.692L73.3412 15.7706C73.5453 15.4216 73.7024 15.0471 73.8084 14.657C73.952 14.2866 74.0334 13.8951 74.0495 13.4983C74.0868 12.155 73.7972 10.8227 73.2056 9.61572C72.6662 8.56683 71.8476 7.68683 70.8397 7.07251C69.7436 6.43398 68.4918 6.11104 67.2232 6.1395C65.7302 6.0888 64.2545 6.4703 62.9737 7.23804C61.7904 8.04086 60.8808 9.18546 60.3667 10.5186C59.7099 12.2334 59.3778 14.0551 59.3872 15.891C59.3382 17.6743 59.6455 19.4495 60.2914 21.1129C60.8274 22.4602 61.777 23.6034 63.0038 24.3784C64.3139 25.1729 65.8268 25.5702 67.3588 25.5221C69.0721 25.5714 70.7708 25.1939 72.3014 24.4236C73.71 23.6457 74.8816 22.5017 75.692 21.1129L83.2265 23.4454C81.7802 26.2108 79.5535 28.492 76.8222 30.0066C73.8835 31.5075 70.6128 32.2425 67.3136 32.1435Z" fill="white"/>
<path d="M84.5073 0.720947H93.82L101.355 17.8764L108.889 0.720947H118.202L101.385 32.1725L84.5073 0.720947Z" fill="white"/>
<path d="M135.908 32.144C132.862 32.2117 129.847 31.5185 127.138 30.1275C124.714 28.8647 122.705 26.9318 121.351 24.5595C120.004 21.9327 119.301 19.0236 119.301 16.0721C119.301 13.1207 120.004 10.2115 121.351 7.5847C122.693 5.20671 124.705 3.2755 127.138 2.03177C129.874 0.760717 132.852 0.0908923 135.871 0.0675276C138.889 0.0441629 141.877 0.667802 144.633 1.89633C146.963 3.06777 148.87 4.93504 150.088 7.23858C151.4 9.86068 152.041 12.766 151.956 15.6959C151.956 16.1022 151.956 16.5236 151.956 16.96C151.949 17.3227 151.919 17.6846 151.866 18.0435H124.26V12.6862H144.271L141.92 15.7711C142.135 15.4214 142.307 15.0476 142.433 14.6576C142.566 14.2847 142.642 13.8941 142.659 13.4988C142.701 12.1568 142.416 10.8245 141.83 9.61626C141.285 8.56633 140.461 7.68644 139.449 7.07305C138.353 6.43452 137.101 6.11158 135.833 6.14004C134.34 6.09275 132.865 6.47401 131.583 7.23858C130.4 8.0414 129.49 9.186 128.976 10.5192C128.341 12.238 128.029 14.0595 128.057 15.8915C128.008 17.6749 128.315 19.4501 128.961 21.1134C129.497 22.4607 130.447 23.6039 131.673 24.379C132.978 25.173 134.486 25.5704 136.013 25.5226C137.721 25.5651 139.413 25.1878 140.941 24.4241C142.345 23.6452 143.511 22.5012 144.316 21.1134L151.851 23.4459C150.4 26.2083 148.175 28.4884 145.447 30.0071C142.497 31.5068 139.217 32.2416 135.908 32.144Z" fill="white"/>
<path d="M167.01 0.737545V32.144H158.511V0.737545H167.01ZM176.052 9.96234C175.53 9.44985 174.93 9.02319 174.274 8.69825C173.571 8.37482 172.802 8.22021 172.028 8.2468C171.04 8.22441 170.073 8.5374 169.286 9.13466C168.492 9.78864 167.901 10.6552 167.583 11.6327C167.176 12.8756 166.983 14.178 167.01 15.4852L164.614 13.0323C164.568 10.7374 165.047 8.46218 166.016 6.38077C166.852 4.55962 168.113 2.96508 169.693 1.73075C171.016 0.644609 172.667 0.0350022 174.379 0.000166296C175.468 -0.00667707 176.548 0.197753 177.559 0.602107C178.522 0.992596 179.365 1.63131 180 2.45308L176.052 9.96234Z" fill="white"/>
</g>
<defs>
<clipPath id="clip0_17_144">
<rect width="180" height="32.1739" fill="white"/>
</clipPath>
</defs>
</svg>
